<svg xmlns="http://www.w3.org/2000/svg" viewBox="0 0 760 250" font-family="-apple-system, BlinkMacSystemFont, 'Apple SD Gothic Neo', sans-serif">
<title>9월 28일부터 10월 10일까지</title>
<rect width="760" height="250" rx="16" fill="#ffffff"/>
<text x="32" y="38" font-size="16" font-weight="700" fill="#1f2937">9월 28일부터 13일</text>
<rect x="190" y="28" width="12" height="12" rx="2" fill="#c7d2fe"/><text x="208" y="38" font-size="11" fill="#6b7280">하루 커밋</text>
<path d="M276 34 H292" stroke="#f59e0b" stroke-width="2.5"/><text x="298" y="38" font-size="11" fill="#6b7280">하루 끝 E2E 테스트 수</text>
<rect x="69.8" y="99.1" width="29.5" height="104.9" rx="4" fill="#c7d2fe"/>
<text x="84.6" y="94.1" font-size="10.5" fill="#8b93a1" text-anchor="middle" font-weight="400">65</text>
<text x="84.6" y="222" font-size="11" fill="#9ca3af" text-anchor="middle" font-weight="400">9/28</text>
<rect x="119.1" y="165.3" width="29.5" height="38.7" rx="4" fill="#c7d2fe"/>
<text x="133.8" y="160.3" font-size="10.5" fill="#8b93a1" text-anchor="middle" font-weight="400">24</text>
<text x="133.8" y="222" font-size="11" fill="#9ca3af" text-anchor="middle" font-weight="400">9/29</text>
<rect x="168.3" y="150.7" width="29.5" height="53.3" rx="4" fill="#c7d2fe"/>
<text x="183.1" y="145.7" font-size="10.5" fill="#8b93a1" text-anchor="middle" font-weight="400">33</text>
<text x="183.1" y="222" font-size="11" fill="#9ca3af" text-anchor="middle" font-weight="400">9/30</text>
<rect x="217.5" y="121.7" width="29.5" height="82.3" rx="4" fill="#c7d2fe"/>
<text x="232.3" y="116.7" font-size="10.5" fill="#8b93a1" text-anchor="middle" font-weight="400">51</text>
<text x="232.3" y="222" font-size="11" fill="#9ca3af" text-anchor="middle" font-weight="400">10/1</text>
<rect x="266.8" y="118.4" width="29.5" height="85.6" rx="4" fill="#c7d2fe"/>
<text x="281.5" y="113.4" font-size="10.5" fill="#8b93a1" text-anchor="middle" font-weight="400">53</text>
<text x="281.5" y="222" font-size="11" fill="#9ca3af" text-anchor="middle" font-weight="400">10/2</text>
<rect x="316.0" y="155.6" width="29.5" height="48.4" rx="4" fill="#c7d2fe"/>
<text x="330.8" y="150.6" font-size="10.5" fill="#8b93a1" text-anchor="middle" font-weight="400">30</text>
<text x="330.8" y="222" font-size="11" fill="#9ca3af" text-anchor="middle" font-weight="400">10/3</text>
<rect x="365.2" y="70.0" width="29.5" height="134.0" rx="4" fill="#c7d2fe"/>
<text x="380.0" y="65.0" font-size="10.5" fill="#8b93a1" text-anchor="middle" font-weight="400">83</text>
<text x="380.0" y="222" font-size="11" fill="#9ca3af" text-anchor="middle" font-weight="400">10/4</text>
<rect x="414.5" y="79.7" width="29.5" height="124.3" rx="4" fill="#c7d2fe"/>
<text x="429.2" y="74.7" font-size="10.5" fill="#8b93a1" text-anchor="middle" font-weight="400">77</text>
<text x="429.2" y="222" font-size="11" fill="#9ca3af" text-anchor="middle" font-weight="400">10/5</text>
<rect x="463.7" y="184.6" width="29.5" height="19.4" rx="4" fill="#c7d2fe"/>
<text x="478.5" y="179.6" font-size="10.5" fill="#8b93a1" text-anchor="middle" font-weight="400">12</text>
<text x="478.5" y="222" font-size="11" fill="#9ca3af" text-anchor="middle" font-weight="400">10/6</text>
<rect x="512.9" y="157.2" width="29.5" height="46.8" rx="4" fill="#c7d2fe"/>
<text x="527.7" y="152.2" font-size="10.5" fill="#8b93a1" text-anchor="middle" font-weight="400">29</text>
<text x="527.7" y="222" font-size="11" fill="#9ca3af" text-anchor="middle" font-weight="400">10/7</text>
<rect x="562.2" y="115.2" width="29.5" height="88.8" rx="4" fill="#c7d2fe"/>
<text x="576.9" y="110.2" font-size="10.5" fill="#8b93a1" text-anchor="middle" font-weight="400">55</text>
<text x="576.9" y="222" font-size="11" fill="#9ca3af" text-anchor="middle" font-weight="400">10/8</text>
<rect x="611.4" y="181.4" width="29.5" height="22.6" rx="4" fill="#c7d2fe"/>
<text x="626.2" y="176.4" font-size="10.5" fill="#8b93a1" text-anchor="middle" font-weight="400">14</text>
<text x="626.2" y="222" font-size="11" fill="#9ca3af" text-anchor="middle" font-weight="400">10/9</text>
<rect x="660.6" y="108.7" width="29.5" height="95.3" rx="4" fill="#6366f1"/>
<text x="675.4" y="103.7" font-size="10.5" fill="#4338ca" text-anchor="middle" font-weight="700">59</text>
<text x="675.4" y="222" font-size="11" fill="#1f2937" text-anchor="middle" font-weight="700">10/10</text>
<polyline fill="none" stroke="#f59e0b" stroke-width="2.5" points="84.6,173.9 133.8,163.8 183.1,153.4 232.3,145.7 281.5,137.2 330.8,127.5 380.0,125.2 429.2,116.0 478.5,113.3 527.7,106.3 576.9,88.5 626.2,89.3 675.4,70.0"/>
<circle cx="84.6" cy="173.9" r="3" fill="#f59e0b"/>
<circle cx="133.8" cy="163.8" r="3" fill="#f59e0b"/>
<circle cx="183.1" cy="153.4" r="3" fill="#f59e0b"/>
<circle cx="232.3" cy="145.7" r="3" fill="#f59e0b"/>
<circle cx="281.5" cy="137.2" r="3" fill="#f59e0b"/>
<circle cx="330.8" cy="127.5" r="3" fill="#f59e0b"/>
<circle cx="380.0" cy="125.2" r="3" fill="#f59e0b"/>
<circle cx="429.2" cy="116.0" r="3" fill="#f59e0b"/>
<circle cx="478.5" cy="113.3" r="3" fill="#f59e0b"/>
<circle cx="527.7" cy="106.3" r="3" fill="#f59e0b"/>
<circle cx="576.9" cy="88.5" r="3" fill="#f59e0b"/>
<circle cx="626.2" cy="89.3" r="3" fill="#f59e0b"/>
<circle cx="675.4" cy="70.0" r="4.5" fill="#f59e0b"/>
<text x="684.4" y="85.0" font-size="10.5" fill="#b45309" font-weight="700">E2E 347</text>
</svg>
