<svg xmlns="http://www.w3.org/2000/svg" viewBox="0 0 760 370" font-family="-apple-system, BlinkMacSystemFont, 'Apple SD Gothic Neo', sans-serif">
<title>10월 8일 영역별 바뀐 줄</title>
<rect width="760" height="370" rx="16" fill="#ffffff"/>
<text x="32" y="38" font-size="16" font-weight="700" fill="#1f2937">어디를 얼마나 고쳤나</text>
<text x="322" y="60" font-size="11" fill="#c2410c" text-anchor="end">← 지운 줄</text>
<text x="338" y="60" font-size="11" fill="#15803d">더한 줄 →</text>
<text x="32" y="88" font-size="12.5" fill="#374151">메모</text>
<rect x="210.4" y="74" width="119.6" height="18" rx="3" fill="#fdba74"/>
<rect x="330.0" y="74" width="172.4" height="18" rx="3" fill="#86efac"/>
<text x="204.4" y="87" font-size="10.5" fill="#9a3412" text-anchor="end">−2,128</text>
<text x="508.4" y="87" font-size="10.5" fill="#166534">+3,067</text>
<text x="32" y="118" font-size="12.5" fill="#374151">사진</text>
<rect x="281.2" y="104" width="48.8" height="18" rx="3" fill="#fdba74"/>
<rect x="330.0" y="104" width="190.0" height="18" rx="3" fill="#86efac"/>
<text x="275.2" y="117" font-size="10.5" fill="#9a3412" text-anchor="end">−868</text>
<text x="526.0" y="117" font-size="10.5" fill="#166534">+3,381</text>
<text x="32" y="148" font-size="12.5" fill="#374151">블로그 글</text>
<rect x="300.5" y="134" width="29.5" height="18" rx="3" fill="#fdba74"/>
<rect x="330.0" y="134" width="94.9" height="18" rx="3" fill="#86efac"/>
<text x="294.5" y="147" font-size="10.5" fill="#9a3412" text-anchor="end">−525</text>
<text x="430.9" y="147" font-size="10.5" fill="#166534">+1,689</text>
<text x="32" y="178" font-size="12.5" fill="#374151">E2E 테스트</text>
<rect x="320.4" y="164" width="9.6" height="18" rx="3" fill="#fdba74"/>
<rect x="330.0" y="164" width="76.0" height="18" rx="3" fill="#86efac"/>
<text x="314.4" y="177" font-size="10.5" fill="#9a3412" text-anchor="end">−170</text>
<text x="412.0" y="177" font-size="10.5" fill="#166534">+1,353</text>
<text x="32" y="208" font-size="12.5" fill="#374151">데스크톱·휴대폰 셸</text>
<rect x="309.6" y="194" width="20.4" height="18" rx="3" fill="#fdba74"/>
<rect x="330.0" y="194" width="55.5" height="18" rx="3" fill="#86efac"/>
<text x="303.6" y="207" font-size="10.5" fill="#9a3412" text-anchor="end">−363</text>
<text x="391.5" y="207" font-size="10.5" fill="#166534">+987</text>
<text x="32" y="238" font-size="12.5" fill="#374151">Finder</text>
<rect x="319.2" y="224" width="10.8" height="18" rx="3" fill="#fdba74"/>
<rect x="330.0" y="224" width="50.7" height="18" rx="3" fill="#86efac"/>
<text x="313.2" y="237" font-size="10.5" fill="#9a3412" text-anchor="end">−192</text>
<text x="386.7" y="237" font-size="10.5" fill="#166534">+902</text>
<text x="32" y="268" font-size="12.5" fill="#374151">Safari</text>
<rect x="318.3" y="254" width="11.7" height="18" rx="3" fill="#fdba74"/>
<rect x="330.0" y="254" width="38.6" height="18" rx="3" fill="#86efac"/>
<text x="312.3" y="267" font-size="10.5" fill="#9a3412" text-anchor="end">−209</text>
<text x="374.6" y="267" font-size="10.5" fill="#166534">+686</text>
<text x="32" y="298" font-size="12.5" fill="#374151">공통 UI·데이터</text>
<rect x="327.8" y="284" width="2.2" height="18" rx="3" fill="#fdba74"/>
<rect x="330.0" y="284" width="25.7" height="18" rx="3" fill="#86efac"/>
<text x="321.8" y="297" font-size="10.5" fill="#9a3412" text-anchor="end">−39</text>
<text x="361.7" y="297" font-size="10.5" fill="#166534">+457</text>
<text x="32" y="328" font-size="12.5" fill="#374151">API · 사진 캡션</text>
<rect x="330.0" y="314" width="0.0" height="18" rx="3" fill="#fdba74"/>
<rect x="330.0" y="314" width="8.9" height="18" rx="3" fill="#86efac"/>
<text x="324.0" y="327" font-size="10.5" fill="#9a3412" text-anchor="end">−0</text>
<text x="344.9" y="327" font-size="10.5" fill="#166534">+158</text>
<path d="M330 66 V340" stroke="#d1d5db"/>
<text x="32" y="358" font-size="10" fill="#8b93a1">머지 커밋, 잠금 파일·node_modules, 그림·영상, openapi.json은 빼고 셌다</text>
</svg>
