<svg xmlns="http://www.w3.org/2000/svg" viewBox="0 0 1024 1024">
	<defs>
		<linearGradient id="bg" x1="0" y1="0" x2="0" y2="1">
			<stop offset="0" stop-color="#2b3a55"/>
			<stop offset="1" stop-color="#0f5f63"/>
		</linearGradient>
		<linearGradient id="shine" x1="0" y1="0" x2="0" y2="1">
			<stop offset="0" stop-color="#ffffff" stop-opacity="0.18"/>
			<stop offset="0.5" stop-color="#ffffff" stop-opacity="0"/>
		</linearGradient>
	</defs>
	<!-- 칸을 꽉 채운다 (둥근 모서리는 Dock·Launchpad가 깎는다, 다른 아이콘과 같게) -->
	<rect width="1024" height="1024" fill="url(#bg)"/>
	<rect width="1024" height="1024" fill="url(#shine)"/>
	<!-- { } -->
	<g transform="translate(512 512) scale(1.22) translate(-512 -512)">
	<g fill="none" stroke="#ffffff" stroke-width="44" stroke-linecap="round" stroke-linejoin="round">
		<path d="M408 300c-58 0-84 24-84 74v74c0 38-20 58-62 64 42 6 62 26 62 64v74c0 50 26 74 84 74"/>
		<path d="M616 300c58 0 84 24 84 74v74c0 38 20 58 62 64-42 6-62 26-62 64v74c0 50-26 74-84 74"/>
	</g>
	<text x="512" y="560" text-anchor="middle" font-family="-apple-system, BlinkMacSystemFont, 'Helvetica Neue', Arial, sans-serif" font-size="128" font-weight="700" fill="#7ee0d5" letter-spacing="4">API</text>
	</g>
</svg>
